<svg xmlns="http://www.w3.org/2000/svg" width="138" height="28" viewBox="0 0 138 28">
    <g fill="none" fill-rule="evenodd">
        <g>
            <g>
                <path fill="#20419A" d="M81.009 0L4.986 0 0 23.442 76.023 23.442 81.009 0M137.846 9.767L84.264 9.767 80.356 28 133.937 28 137.846 9.767" transform="translate(-121 -23) translate(121 23)"/>
                <path fill="#F58220" d="M75.468 0L70.556 23.442 91.124 23.442 96.035 0z" transform="translate(-121 -23) translate(121 23)"/>
                <path fill="#FFFFFE" d="M97.995 20.186L97.31 23.442 94.075 23.442 94.76 20.186 97.995 20.186M80.254 18.68l2.51-10.316c.065-.269.135-.44-.006-.44-.14 0-.955.465-1.679.783-.407.17-1.52.586-2.11.586-.59 0-.64-.366-.521-.855l.416-1.711c.137-.563.381-.758.866-.905.395-.122 1.327-.489 2.31-.953 1.143-.538 2.24-1.124 2.547-1.344.307-.22.6-.27.965-.27h2.416c.674 0 .99.319.847.905L85.27 18.728c-.095.391-.505.807-.983.807H81c-.59 0-.871-.342-.746-.856zM6.975 18.884L3.92 18.884 14.189 4.558 17.391 4.558 20.906 18.884 17.704 18.884 16.814 14.977 11.478 14.977 13.055 12.673 16.29 12.673 15.058 7.293 6.975 18.884M23.751 13.193l2.12-8.635h3.012l-2.12 8.635c-.556 2.268.491 3.403 3.144 3.403 2.652 0 4.256-1.135 4.813-3.403l2.12-8.635h3.011l-2.119 8.635c-.93 3.794-3.726 5.69-8.387 5.69-4.66 0-6.525-1.896-5.594-5.69M53.571 4.558L53.03 6.862 48.544 6.862 45.724 18.884 42.824 18.884 45.644 6.862 41.158 6.862 41.698 4.558 53.571 4.558M53.126 12.067c1.155-5.006 4.388-7.509 9.698-7.509 5.23 0 7.267 2.503 6.112 7.51-1.148 4.978-4.338 7.467-9.567 7.467-5.074 0-7.155-2.49-6.243-7.468zm6.791 5.092c3.196 0 5.19-1.718 5.982-5.154.78-3.38-.427-5.071-3.623-5.071-3.277 0-5.305 1.69-6.085 5.071-.793 3.436.45 5.154 3.726 5.154zM105.927 22.569c-.743.148-1.494.222-2.253.222-3.039-.002-4.215-1.355-3.53-4.06.635-2.504 2.471-3.756 5.51-3.754.76 0 1.473.075 2.14.224l-.396 1.563c-.667-.15-1.326-.224-1.978-.224-1.709-.001-2.749.73-3.12 2.193-.42 1.662.223 2.494 1.932 2.495.651 0 1.348-.074 2.091-.222l-.396 1.563M109.278 18.885c.638-2.607 2.312-3.91 5.024-3.908 2.71.002 3.748 1.306 3.11 3.913-.637 2.602-2.311 3.903-5.022 3.9-2.701-.001-3.738-1.303-3.112-3.905zm3.478 2.41c1.33 0 2.193-.811 2.59-2.436.388-1.585-.083-2.378-1.412-2.379-1.33 0-2.189.791-2.576 2.377-.398 1.624.068 2.437 1.398 2.438zM118.9 22.783l1.947-7.806h1.64l-.033 1.131c.94-.753 1.938-1.129 2.994-1.128 1.056 0 1.69.358 1.901 1.072 1.037-.713 2.025-1.07 2.964-1.07 1.93.002 2.65.992 2.156 2.97l-1.207 4.839-2.12-.002 1.225-4.914c.217-.867-.096-1.3-.94-1.301-.629 0-1.3.261-2.012.786l-1.354 5.427-2.12-.001 1.22-4.892c.22-.882-.06-1.323-.838-1.324-.619 0-1.268.262-1.949.787l-1.353 5.427-2.12-.001" transform="translate(-121 -23) translate(121 23)"/>
            </g>
        </g>
    </g>
</svg>